# xmcd CD database file
#
# Track frame offsets:
#	151
#	14814
#	32661
#	50630
#	65793
#	80338
#	97783
#	111962
#	126105
#	140752
#	151359
#	163364
#	182305
#	200504
#	218943
#	229018
#	241605
#	257952
#
# Disc length: 3604 seconds
#
# Revision: 0
# Processed by: cddbd v1.5.1PL0 Copyright (c) Steve Scherf et al.
# Submitted via: CDex 1.51
#
DISCID=010e1212
DTITLE=Phil Carmen - Clover Leaf
DYEAR=1900
DGENRE=Country
TTITLE0=Born a rider
TTITLE1=Part of me is part of you
TTITLE2=Travelin' kind
TTITLE3=Doin'it my way
TTITLE4=Getting' up
TTITLE5=Robert said
TTITLE6=Steps on the time
TTITLE7=Road to freedom
TTITLE8=Not guilty
TTITLE9=Sad
TTITLE10=Don't ask me
TTITLE11=Goin' but I won't be long
TTITLE12=My back pages
TTITLE13=Chimes of freedom
TTITLE14=Oxford town
TTITLE15=Only a hobo
TTITLE16=You ain't goin' nowhere
TTITLE17=Corina, Corina
EXTD=
EXTT0=
EXTT1=
EXTT2=
EXTT3=
EXTT4=
EXTT5=
EXTT6=
EXTT7=
EXTT8=
EXTT9=
EXTT10=
EXTT11=
EXTT12=
EXTT13=
EXTT14=
EXTT15=
EXTT16=
EXTT17=
PLAYORDER=
